<svg xmlns="http://www.w3.org/2000/svg" width="59.658" height="37.783" viewBox="0 0 59.658 37.783">
  <g id="iconfinder_37-behance_104465" transform="translate(-3.503 -15.906)">
    <path id="Path_52" data-name="Path 52" d="M27.581,32.8s5.644-.42,5.644-7.04-4.618-9.853-10.469-9.853H3.5v37H22.756s11.752.371,11.752-10.922C34.507,41.984,35.021,32.8,27.581,32.8ZM11.986,22.482H22.755s2.618,0,2.618,3.848-1.54,4.409-3.285,4.409h-10.1V22.482ZM22.211,46.329c-.285.007-.526,0-.688,0H11.986V36.443h10.77s3.9-.052,3.9,5.079C26.656,45.851,23.743,46.3,22.211,46.329Z" transform="translate(0 0)" fill="#b0b2c3"/>
    <path id="Path_53" data-name="Path 53" d="M44.76,23.746c-14.228,0-14.216,14.216-14.216,14.216S29.569,52.105,44.76,52.105c0,0,12.661.723,12.661-9.84H50.909s.216,3.979-5.933,3.979c0,0-6.51.433-6.51-6.439H57.638S59.735,23.746,44.76,23.746ZM38.393,34.869s.795-5.7,6.51-5.7,5.642,5.7,5.642,5.7Z" transform="translate(5.425 1.573)" fill="#b0b2c3"/>
    <rect id="Rectangle_54" data-name="Rectangle 54" width="15.262" height="4.557" transform="translate(42.225 18.085)" fill="#b0b2c3"/>
  </g>
</svg>
