<svg xmlns="http://www.w3.org/2000/svg" width="46.805" height="46.805" viewBox="0 0 46.805 46.805">
  <path id="iconfinder_icon-person_211874" d="M46.8,46.8a42.626,42.626,0,0,0-.268-4.9c-.219-1.329-2.06-3.084-9.885-5.96-7.7-2.828-7.228-1.45-7.228-6.655,0-3.376,1.719-1.414,2.816-7.825.427-2.523.768-.841,1.694-4.888.488-2.121-.329-2.279-.232-3.291s.2-1.914.378-3.986C34.3,6.74,31.922,0,23.4,0s-10.9,6.74-10.665,9.312c.183,2.06.28,2.974.378,3.986s-.719,1.17-.232,3.291c.926,4.034,1.268,2.352,1.694,4.888,1.1,6.411,2.816,4.449,2.816,7.825,0,5.217.475,3.839-7.228,6.655C2.34,38.821.488,40.588.28,41.917A40.516,40.516,0,0,0,0,46.8H46.8Z" transform="translate(0 0)" fill="#fff" opacity="0.99"/>
</svg>
