<svg xmlns="http://www.w3.org/2000/svg" xmlns:xlink="http://www.w3.org/1999/xlink" width="1000" height="711.573" viewBox="0 0 1000 711.573">
  <defs>
    <linearGradient id="linear-gradient" y1="0.5" x2="1.226" y2="0.5" gradientUnits="objectBoundingBox">
      <stop offset="0" stop-color="#ef3636"/>
      <stop offset="1" stop-color="#f06449"/>
    </linearGradient>
  </defs>
  <path id="Exclusion_5" data-name="Exclusion 5" d="M623.652,732.165H229.023a237.762,237.762,0,0,1-91.214-17.421,208.4,208.4,0,0,1-71.094-48.276A235.878,235.878,0,0,1,4.105,501.113V487.823a237.452,237.452,0,0,1,62.63-165.867,208.826,208.826,0,0,1,71.095-48.623,236.02,236.02,0,0,1,91.214-17.564h155.4V20.607H779.07a237.8,237.8,0,0,1,91.214,17.421A208.375,208.375,0,0,1,941.379,86.3a235.837,235.837,0,0,1,62.609,165.355V264.97a237.452,237.452,0,0,1-62.629,165.867,208.828,208.828,0,0,1-71.094,48.623,236.018,236.018,0,0,1-91.214,17.564h-155.4V732.165ZM304.678,420.347c-46.149,0-71.565,24.332-71.565,68.5v8.179c0,44.166,25.416,68.5,71.565,68.5h79.744V420.347Zm318.974-233.1V332.425H703.4c46.149,0,71.565-24.332,71.565-68.5v-8.179c0-44.186-25.416-68.518-71.565-68.518Z" transform="translate(-4.047 -20.6)" fill="url(#linear-gradient)"/>
</svg>
