<svg xmlns="http://www.w3.org/2000/svg" width="35.997" height="46" viewBox="0 0 35.997 46">
  <g id="quality" transform="translate(-55.666 0)">
    <g id="Group_77" data-name="Group 77" transform="translate(59.538 35.122)">
      <g id="Group_76" data-name="Group 76" transform="translate(0)">
        <path id="Path_82" data-name="Path 82" d="M110.274,391.737a5.715,5.715,0,0,1-6.474.969,5.9,5.9,0,0,1-1.992-1.545l-3,6.625a.576.576,0,0,0,.679.792l2.181-.607a2.778,2.778,0,0,1,3.249,1.469l.985,2.038a.576.576,0,0,0,1.043-.013l4.765-10.539A3.575,3.575,0,0,0,110.274,391.737Z" transform="translate(-98.758 -390.926)" fill="#fff"/>
      </g>
    </g>
    <g id="Group_79" data-name="Group 79" transform="translate(74.835 35.122)">
      <g id="Group_78" data-name="Group 78" transform="translate(0)">
        <path id="Path_83" data-name="Path 83" d="M281.924,397.786l-3-6.625a5.9,5.9,0,0,1-1.992,1.545,5.715,5.715,0,0,1-6.474-.969,3.575,3.575,0,0,0-1.442-.811l4.765,10.539a.576.576,0,0,0,1.043.013l.985-2.038a2.778,2.778,0,0,1,3.249-1.469l2.181.607a.576.576,0,0,0,.679-.792Z" transform="translate(-269.022 -390.926)" fill="#fff"/>
      </g>
    </g>
    <g id="Group_81" data-name="Group 81" transform="translate(55.666)">
      <g id="Group_80" data-name="Group 80">
        <path id="Path_84" data-name="Path 84" d="M90.09,18.669a5.847,5.847,0,0,1-1.757-7.7,3.614,3.614,0,0,0-4.191-5.256,5.848,5.848,0,0,1-7.116-3.427,3.614,3.614,0,0,0-6.722,0,5.848,5.848,0,0,1-7.116,3.427A3.614,3.614,0,0,0,59,10.969a5.848,5.848,0,0,1-1.757,7.7,3.613,3.613,0,0,0,1.5,6.554A5.848,5.848,0,0,1,63.66,31.4a3.614,3.614,0,0,0,6.056,2.917,5.847,5.847,0,0,1,7.9,0A3.614,3.614,0,0,0,83.67,31.4a5.848,5.848,0,0,1,4.924-6.175,3.614,3.614,0,0,0,1.5-6.554ZM73.665,30.181A11.825,11.825,0,1,1,85.49,18.355,11.839,11.839,0,0,1,73.665,30.181Z" transform="translate(-55.666)" fill="#fff"/>
      </g>
    </g>
    <g id="Group_83" data-name="Group 83" transform="translate(64.045 8.735)">
      <g id="Group_82" data-name="Group 82" transform="translate(0)">
        <path id="Path_85" data-name="Path 85" d="M158.54,97.225a9.62,9.62,0,1,0,9.62,9.62A9.631,9.631,0,0,0,158.54,97.225Zm4.93,8.688-5.987,4.373a1.1,1.1,0,0,1-1.552-.257l-1.791-2.55a1.1,1.1,0,1,1,1.8-1.267l1.146,1.631,5.08-3.711a1.1,1.1,0,1,1,1.3,1.78Z" transform="translate(-148.92 -97.225)" fill="#fff"/>
      </g>
    </g>
  </g>
</svg>
