<svg xmlns="http://www.w3.org/2000/svg" xmlns:xlink="http://www.w3.org/1999/xlink" width="78.957" height="56.184" viewBox="0 0 78.957 56.184">
  <defs>
    <linearGradient id="linear-gradient" y1="0.5" x2="1.226" y2="0.5" gradientUnits="objectBoundingBox">
      <stop offset="0" stop-color="#fff"/>
      <stop offset="1" stop-color="#fff"/>
    </linearGradient>
  </defs>
  <path id="Exclusion_5" data-name="Exclusion 5" d="M52.969,76.783H21.811a18.773,18.773,0,0,1-7.2-1.376A16.455,16.455,0,0,1,9,71.6,18.624,18.624,0,0,1,4.052,58.54V57.49A18.749,18.749,0,0,1,9,44.394a16.488,16.488,0,0,1,5.613-3.839,18.635,18.635,0,0,1,7.2-1.387h12.27V20.6H65.241a18.776,18.776,0,0,1,7.2,1.376,16.453,16.453,0,0,1,5.613,3.812A18.621,18.621,0,0,1,83,38.843v1.051a18.749,18.749,0,0,1-4.945,13.1,16.489,16.489,0,0,1-5.613,3.839,18.635,18.635,0,0,1-7.2,1.387H52.969ZM27.784,52.163c-3.644,0-5.651,1.921-5.651,5.408v.646c0,3.487,2.007,5.408,5.651,5.408h6.3V52.163Zm25.185-18.4V45.221h6.3c3.644,0,5.651-1.921,5.651-5.408v-.646c0-3.489-2.007-5.41-5.651-5.41Z" transform="translate(-4.047 -20.6)" fill="url(#linear-gradient)"/>
</svg>
