<svg xmlns="http://www.w3.org/2000/svg" width="45.997" height="46" viewBox="0 0 45.997 46">
  <g id="design-tools" transform="translate(0 0.002)">
    <path id="Path_86" data-name="Path 86" d="M37.095,15.866a5.558,5.558,0,0,0,5.038-1.546l2.9-2.9a3.291,3.291,0,0,0,.507-3.992L40.39,12.577a.82.82,0,0,1-1.161,0L33.421,6.769a.821.821,0,0,1,0-1.161L38.575.452A3.291,3.291,0,0,0,34.581.96l-2.9,2.9A5.556,5.556,0,0,0,30.132,8.9a5.509,5.509,0,0,1-1.8,4.989L16.864,23.744,14.9,25.436,1.817,36.675A5.319,5.319,0,0,0,5.5,45.994a5.27,5.27,0,0,0,3.827-1.818L20.561,31.1h0l9.664-11.246L32.1,17.671a5.514,5.514,0,0,1,4.992-1.8ZM7.366,43.278a3.287,3.287,0,1,1,.962-2.324A3.275,3.275,0,0,1,7.366,43.278Zm16.868-18.03L10.875,39.769a.821.821,0,0,1-.6.265.8.8,0,0,1-.14-.012.823.823,0,0,1-.616-.487c-.085-.2-.163-.408-.242-.623a4.122,4.122,0,0,0-.744-1.441,4.136,4.136,0,0,0-1.441-.744c-.215-.08-.426-.159-.623-.242a.82.82,0,0,1-.234-1.359L20.751,21.766a.822.822,0,0,1,1.137.024l2.323,2.323a.82.82,0,0,1,.023,1.135Zm6.739-9.062-5.75,5.75a.821.821,0,0,1-1.161-1.161l5.75-5.75a.821.821,0,0,1,1.161,1.161Zm1.3-3.626,1.643-1.643a.821.821,0,0,1,1.161,1.161l-1.643,1.643a.821.821,0,0,1-1.161-1.161Z" transform="translate(0)" fill="#fff"/>
    <path id="Path_87" data-name="Path 87" d="M9.151,17.514,17.98,8.686,15.657,6.362,6.364,15.655l2.323,2.324Z" transform="translate(-1.137 -1.137)" fill="#fff"/>
    <path id="Path_88" data-name="Path 88" d="M5.782,47.861a1.639,1.639,0,1,0,1.162.48A1.64,1.64,0,0,0,5.782,47.861Z" transform="translate(-0.739 -8.548)" fill="#fff"/>
    <path id="Path_89" data-name="Path 89" d="M10.119,40.551a4.219,4.219,0,0,1,1.378.869,4.222,4.222,0,0,1,.87,1.378L24.3,29.827,23.09,28.618Z" transform="translate(-1.807 -5.111)" fill="#fff"/>
    <path id="Path_90" data-name="Path 90" d="M32.469,36.962A.821.821,0,0,1,33.63,35.8l4.78,4.78,5.808-5.808L35.741,26.3l-6.233,7.253-2.357,2.744,7.773,7.773,2.324-2.323Z" transform="translate(-4.849 -4.697)" fill="#fff"/>
    <path id="Path_91" data-name="Path 91" d="M17.395,24.644,26.292,17,19.9,10.605l-.465.464L10.606,19.9l5.69,5.69Z" transform="translate(-1.894 -1.894)" fill="#fff"/>
    <path id="Path_92" data-name="Path 92" d="M.412,7.719a1.4,1.4,0,0,0,0,1.985l3.654,3.654,9.293-9.293L9.705.41A1.4,1.4,0,0,0,7.72.41Z" transform="translate(0 0)" fill="#fff"/>
    <path id="Path_93" data-name="Path 93" d="M47.029,38.489,38.49,47.027l9.071,3.441,2.908-2.908Z" transform="translate(-6.874 -6.874)" fill="#fff"/>
    <path id="Path_94" data-name="Path 94" d="M51.584,53.445l3,1.138-1.138-3Z" transform="translate(-9.212 -9.213)" fill="#fff"/>
  </g>
</svg>
