<svg xmlns="http://www.w3.org/2000/svg" width="54.893" height="54.849" viewBox="0 0 54.893 54.849">
  <g id="Layer_2" data-name="Layer 2" transform="translate(0.023 0.006)">
    <g id="Icon" transform="translate(-0.024 -0.006)">
      <path id="Path_54" data-name="Path 54" d="M17.45,14.269A73.1,73.1,0,0,1,26.7,29.277a27.045,27.045,0,0,0,5.711-17.543A24.738,24.738,0,0,0,17.45,14.269Z" transform="translate(22.465 14.755)" fill="#b0b2c3"/>
      <path id="Path_55" data-name="Path 55" d="M.33,21.1A27.411,27.411,0,0,0,21.368,41.657,29.7,29.7,0,0,1,32.652,15.411c-2.627-2.992-4-4.294-5.3-5.551A29.535,29.535,0,0,1,.33,21.1Z" transform="translate(0.479 12.677)" fill="#b0b2c3"/>
      <path id="Path_56" data-name="Path 56" d="M5.07,5.01A79.4,79.4,0,0,1,20.306,15.427,24.738,24.738,0,0,0,22.59.054,27.137,27.137,0,0,0,5.07,5.01Z" transform="translate(6.566 0.006)" fill="#b0b2c3"/>
      <path id="Path_57" data-name="Path 57" d="M.031,24.419a24.967,24.967,0,0,0,24.4-9.708A74.261,74.261,0,0,0,7.8,3.61,27.182,27.182,0,0,0,.031,24.419Z" transform="translate(0.024 4.65)" fill="#b0b2c3"/>
      <path id="Path_58" data-name="Path 58" d="M11.734,37.112a27.228,27.228,0,0,0,19.21-7.1A68.825,68.825,0,0,0,21.214,13.79a24.921,24.921,0,0,0-9.48,23.322Z" transform="translate(14.795 17.724)" fill="#b0b2c3"/>
      <path id="Path_59" data-name="Path 59" d="M13.28,18.157a75.517,75.517,0,0,1,6.556,6.853,29.7,29.7,0,0,1,17.337-3.632A27.411,27.411,0,0,0,16.615.34,29.261,29.261,0,0,1,13.28,18.157Z" transform="translate(17.11 0.451)" fill="#b0b2c3"/>
    </g>
  </g>
</svg>
