<svg xmlns="http://www.w3.org/2000/svg" xmlns:xlink="http://www.w3.org/1999/xlink" width="16" height="11.385" viewBox="0 0 16 11.385">
  <defs>
    <linearGradient id="linear-gradient" y1="0.5" x2="1.226" y2="0.5" gradientUnits="objectBoundingBox">
      <stop offset="0" stop-color="#ef3636"/>
      <stop offset="1" stop-color="#f06449"/>
    </linearGradient>
  </defs>
  <path id="Exclusion_5" data-name="Exclusion 5" d="M13.961,31.985H7.647a3.8,3.8,0,0,1-1.459-.279,3.334,3.334,0,0,1-1.138-.772,3.774,3.774,0,0,1-1-2.646v-.213a3.8,3.8,0,0,1,1-2.654,3.341,3.341,0,0,1,1.138-.778,3.776,3.776,0,0,1,1.459-.281h2.486V20.6h6.314a3.8,3.8,0,0,1,1.459.279,3.334,3.334,0,0,1,1.138.772,3.773,3.773,0,0,1,1,2.646v.213a3.8,3.8,0,0,1-1,2.654,3.341,3.341,0,0,1-1.138.778,3.776,3.776,0,0,1-1.459.281H13.961v3.762ZM8.857,27a1.011,1.011,0,0,0-1.145,1.1v.131a1.011,1.011,0,0,0,1.145,1.1h1.276V27Zm5.1-3.73v2.323h1.276a1.011,1.011,0,0,0,1.145-1.1v-.131a1.011,1.011,0,0,0-1.145-1.1Z" transform="translate(-4.047 -20.6)" fill="url(#linear-gradient)"/>
</svg>
