<svg xmlns="http://www.w3.org/2000/svg" width="60.461" height="72.889" viewBox="0 0 60.461 72.889">
  <path id="Cat" d="M44.569,72.889H25.142s.027-5.763,0-9.719c-13.3,2.862-17.008-7.289-17.008-7.289a30.069,30.069,0,0,0-4.859-7.289c-4.859-2.886,0-2.43,0-2.43,4.859,0,7.289,4.859,7.289,4.859,4.264,7.243,11.852,6.077,14.578,4.859,0-2.43,1.064-6.1,2.43-7.289C16.959,47.4,8.124,41.3,8.124,29.156s2.439-14.578,4.869-17.008C12.5,10.95,10.469,6.524,13.069,0c0,0,4.774,0,9.634,7.289,2.408-2.408,9.719-2.43,12.151-2.43S44.591,4.881,47,7.289C51.858,0,56.642,0,56.642,0c2.6,6.524.566,10.95.075,12.148,2.43,2.43,4.859,4.859,4.859,17.008S52.752,47.4,42.139,48.593c1.365,1.186,2.43,5.37,2.43,7.289Z" transform="translate(-1.115)" fill="#b0b2c3" fill-rule="evenodd"/>
</svg>
