<svg xmlns="http://www.w3.org/2000/svg" width="47.434" height="53.828" viewBox="0 0 47.434 53.828">
  <g id="XMLID_106_" transform="translate(-17.772)">
    <path id="XMLID_107_" d="M18.6,0a.81.81,0,0,0-.819.9l4.171,46.782a1.4,1.4,0,0,0,.947,1.137l17.7,4.914a3.838,3.838,0,0,0,1.734,0l17.752-4.922a1.4,1.4,0,0,0,.947-1.136L65.2.9a.81.81,0,0,0-.819-.9ZM56.32,10.729c-.039.439-.108,1.2-.151,1.7l-.11,1.227c-.044.493-.107,1.2-.14,1.565s-.065.67-.07.67H33.961a.81.81,0,0,0-.819.9l.386,4.309a1,1,0,0,0,.98.9H54.513a.721.721,0,0,1,.729.8c-.04.439-.109,1.2-.153,1.7L53.85,38.376c-.044.493-.1,1.122-.124,1.4s-.435.611-.911.743l-10.458,2.9-.88.243c-.007,0-.4-.105-.88-.238l-10.469-2.9a1.4,1.4,0,0,1-.947-1.136l-.674-7.564a.81.81,0,0,1,.82-.9H33.5a1,1,0,0,1,.98.9l.264,2.961a1.388,1.388,0,0,0,.948,1.13l4.9,1.322.872.235.872-.235,4.906-1.326a1.389,1.389,0,0,0,.949-1.13l.532-5.932a.81.81,0,0,0-.819-.9H29.059a1,1,0,0,1-.979-.9L26.774,12.424c-.044-.493-.112-1.256-.151-1.7a.77.77,0,0,1,.828-.8H55.492A.77.77,0,0,1,56.32,10.729Z" transform="translate(0)"/>
  </g>
</svg>
