<svg xmlns="http://www.w3.org/2000/svg" width="53.828" height="53.828" viewBox="0 0 53.828 53.828">
  <path id="Path_75" data-name="Path 75" d="M52.931,0H.9A.9.9,0,0,0,0,.9V52.931a.9.9,0,0,0,.9.9H52.931a.9.9,0,0,0,.9-.9V.9A.9.9,0,0,0,52.931,0ZM30.5,41.268a8.074,8.074,0,0,1-16.148,0,.9.9,0,1,1,1.794,0,6.28,6.28,0,1,0,12.56,0V19.737a.9.9,0,1,1,1.794,0V41.268Zm10.766-8.074a8.074,8.074,0,1,1-8.074,8.074.9.9,0,1,1,1.794,0,6.28,6.28,0,1,0,6.28-6.28,8.074,8.074,0,1,1,8.074-8.074.9.9,0,1,1-1.794,0,6.28,6.28,0,1,0-6.28,6.28Z"/>
</svg>
