<svg xmlns="http://www.w3.org/2000/svg" width="61.396" height="61.178" viewBox="0 0 61.396 61.178">
  <g id="iconfinder_social-linkedin_216394" transform="translate(-4.95 -5)">
    <g id="Group_39" data-name="Group 39" transform="translate(5.168 22.479)">
      <path id="Path_48" data-name="Path 48" d="M18.11,52.7H5V9H18.11Zm48.069,0H53.069V29.355c0-6.083-2.167-9.111-6.463-9.111-3.4,0-5.563,1.7-6.647,5.091V52.7H26.849s.175-39.329,0-43.7H37.2l.8,8.74h.271a14.591,14.591,0,0,1,12.874-7.333c4.479,0,8.1,1.245,10.868,4.374,2.784,3.133,4.169,7.337,4.169,13.241Z" transform="translate(-5 -9)" fill="#b0b2c3"/>
    </g>
    <g id="Group_40" data-name="Group 40" transform="translate(4.95 5)">
      <ellipse id="Ellipse_1" data-name="Ellipse 1" cx="6.773" cy="6.555" rx="6.773" ry="6.555" fill="#b0b2c3"/>
    </g>
  </g>
</svg>
