<svg xmlns="http://www.w3.org/2000/svg" width="32.305" height="30.759" viewBox="0 0 32.305 30.759">
  <path id="iconfinder_75_111116" d="M36.992,74.345a2.749,2.749,0,0,0,2.749,2.75h8.935a2.749,2.749,0,0,0,2.749-2.75v-11A2.749,2.749,0,0,0,48.677,60.6H44.264a1.374,1.374,0,0,1-1.375-1.375,1.36,1.36,0,0,1,.062-.419,11.054,11.054,0,0,1,6.791-7.176l.014-.014a2.75,2.75,0,0,0-2.123-5.073l-.124.048A16.512,16.512,0,0,0,36.992,61.973Zm17.871,0a2.749,2.749,0,0,0,2.749,2.75h8.935a2.749,2.749,0,0,0,2.749-2.75v-11A2.749,2.749,0,0,0,66.548,60.6H62.135a1.374,1.374,0,0,1-1.375-1.375,1.31,1.31,0,0,1,.062-.419,11.055,11.055,0,0,1,6.791-7.176l.014-.014A2.75,2.75,0,0,0,65.5,46.542l-.124.048A16.512,16.512,0,0,0,54.863,61.973Z" transform="translate(-36.992 -46.336)" fill-rule="evenodd"/>
</svg>
