<svg xmlns="http://www.w3.org/2000/svg" xmlns:xlink="http://www.w3.org/1999/xlink" width="411.695" height="391.99" viewBox="0 0 411.695 391.99">
  <defs>
    <linearGradient id="linear-gradient" x1="0.5" x2="0.5" y2="1" gradientUnits="objectBoundingBox">
      <stop offset="0" stop-color="#ef3636"/>
      <stop offset="1" stop-color="#f06449"/>
    </linearGradient>
  </defs>
  <path id="iconfinder_75_111116" d="M36.992,403.286a35.03,35.03,0,0,0,35.036,35.04H185.9a35.031,35.031,0,0,0,35.039-35.04V263.134A35.029,35.029,0,0,0,185.9,228.1H129.666a17.511,17.511,0,0,1-17.518-17.518,17.336,17.336,0,0,1,.786-5.343,140.876,140.876,0,0,1,86.542-91.449l.174-.175a35.042,35.042,0,0,0-27.057-64.649l-1.585.617C92.61,80.147,36.992,156.356,36.992,245.614Zm227.748,0a35.03,35.03,0,0,0,35.037,35.04H413.651a35.03,35.03,0,0,0,35.036-35.04V263.134A35.027,35.027,0,0,0,413.651,228.1H357.414A17.511,17.511,0,0,1,339.9,210.578a16.7,16.7,0,0,1,.784-5.343,140.885,140.885,0,0,1,86.544-91.449l.173-.175a35.042,35.042,0,0,0-27.057-64.649l-1.585.617C320.358,80.147,264.74,156.356,264.74,245.614Z" transform="translate(-36.992 -46.336)" fill-rule="evenodd" opacity="0.48" fill="url(#linear-gradient)"/>
</svg>
