<svg xmlns="http://www.w3.org/2000/svg" xmlns:xlink="http://www.w3.org/1999/xlink" width="110" height="110" viewBox="0 0 110 110">
  <defs>
    <clipPath id="clip-path">
      <rect id="Rectangle_75" data-name="Rectangle 75" width="110" height="110" transform="translate(587 250)" fill="#fff" stroke="#707070" stroke-width="1"/>
    </clipPath>
  </defs>
  <g id="Mask_Group_7" data-name="Mask Group 7" transform="translate(-587 -250)" clip-path="url(#clip-path)">
    <path id="dp-skill-html5" d="M8.215,0A1.655,1.655,0,0,0,6.541,1.831l8.523,95.6A2.862,2.862,0,0,0,17,99.755L53.166,109.8a7.844,7.844,0,0,0,3.543,0L92.987,99.739a2.861,2.861,0,0,0,1.935-2.322l8.537-95.586A1.655,1.655,0,0,0,101.785,0ZM85.308,21.926c-.081.9-.22,2.457-.31,3.464L84.774,27.9c-.09,1.007-.219,2.446-.287,3.2s-.132,1.369-.144,1.369H39.615A1.655,1.655,0,0,0,37.941,34.3l.788,8.807a2.054,2.054,0,0,0,2,1.831H81.615A1.473,1.473,0,0,1,83.1,46.567c-.082.9-.222,2.458-.312,3.464L80.259,78.423c-.09,1.007-.2,2.293-.254,2.859s-.888,1.248-1.862,1.519L56.772,88.726l-1.8.5c-.015,0-.824-.215-1.8-.486L31.779,82.8a2.861,2.861,0,0,1-1.934-2.322L28.468,65.021a1.656,1.656,0,0,1,1.675-1.831h8.54a2.054,2.054,0,0,1,2,1.831l.54,6.051a2.836,2.836,0,0,0,1.938,2.31l10.007,2.7c.976.264,1.778.479,1.782.479s.806-.216,1.782-.48L66.76,73.375a2.84,2.84,0,0,0,1.939-2.31l1.087-12.123a1.654,1.654,0,0,0-1.674-1.831H29.6a2.053,2.053,0,0,1-2-1.831L24.93,25.39c-.09-1.007-.229-2.566-.31-3.464a1.574,1.574,0,0,1,1.693-1.633h57.3A1.574,1.574,0,0,1,85.308,21.926Z" transform="translate(587 250)" fill="#dd512a"/>
  </g>
</svg>
