<svg xmlns="http://www.w3.org/2000/svg" xmlns:xlink="http://www.w3.org/1999/xlink" width="110" height="110" viewBox="0 0 110 110">
  <defs>
    <clipPath id="clip-path">
      <rect id="Rectangle_78" data-name="Rectangle 78" width="110" height="110" transform="translate(1321 522)" fill="#fff" stroke="#707070" stroke-width="1"/>
    </clipPath>
  </defs>
  <g id="Mask_Group_12" data-name="Mask Group 12" transform="translate(-1321 -522)" clip-path="url(#clip-path)">
    <g id="_x33__x2C__XD_x2C__Adobe" transform="translate(1320.74 521.847)">
      <g id="Group_115" data-name="Group 115">
        <rect id="Rectangle_79" data-name="Rectangle 79" width="110" height="110" transform="translate(0.26 0.153)" fill="#ff26be"/>
        <rect id="Rectangle_80" data-name="Rectangle 80" width="100.32" height="100.32" transform="translate(5.099 4.994)" fill="#2e001f"/>
        <g id="Group_114" data-name="Group 114">
          <g id="Group_113" data-name="Group 113">
            <path id="Path_107" data-name="Path 107" d="M57.364,29.6H48.772L39.548,48.893,30.2,29.6H21.348l12.527,25.05L20.9,80.3h8.747l9.389-19.657,9.5,19.657H58L44.631,54.349Zm23.754,0V42.492H78.642c-8.45,0-18.665,5.449-18.665,19.367,0,10.759,5.452,18.847,17.063,18.847,8.55,0,12.578-2.958,12.578-2.958V29.6ZM81.11,73.3a9.045,9.045,0,0,1-3.288.43c-2.309,0-9.394-1.017-9.394-12.251s8.141-12.133,10.1-12.133a4.168,4.168,0,0,1,2.584.548V73.3Z" fill="#ffd9f2"/>
          </g>
        </g>
      </g>
    </g>
  </g>
</svg>
