<svg xmlns="http://www.w3.org/2000/svg" xmlns:xlink="http://www.w3.org/1999/xlink" width="110" height="110" viewBox="0 0 110 110">
  <defs>
    <clipPath id="clip-path">
      <rect id="Rectangle_77" data-name="Rectangle 77" width="110" height="110" transform="translate(924 264)" fill="#fff" stroke="#707070" stroke-width="1"/>
    </clipPath>
  </defs>
  <g id="Mask_Group_9" data-name="Mask Group 9" transform="translate(-924 -264)" clip-path="url(#clip-path)">
    <g id="dp-skill-js" transform="translate(924.215 264.215)">
      <path id="Path_97" data-name="Path 97" d="M1.612,107.959H107.959V1.612H1.612Z" fill="#ffe100"/>
      <path id="Path_98" data-name="Path 98" d="M102.458,107.959h5.5V1.612h-5.5Z" fill="#ffa800"/>
      <path id="Path_99" data-name="Path 99" d="M1.612,107.959h5.5V1.612h-5.5Z" fill="#fff"/>
      <path id="Path_100" data-name="Path 100" d="M107.959,109.785H1.612a1.826,1.826,0,0,1-1.826-1.826V1.612A1.826,1.826,0,0,1,1.612-.215H107.959a1.826,1.826,0,0,1,1.826,1.826V107.959A1.826,1.826,0,0,1,107.959,109.785ZM3.438,106.132H106.132V3.438H3.438Z"/>
      <path id="Path_101" data-name="Path 101" d="M84.122,100.617a16.514,16.514,0,0,1-16.5-16.5,1.826,1.826,0,0,1,3.653,0A12.842,12.842,0,1,0,84.122,71.28a16.495,16.495,0,1,1,16.5-16.495,1.826,1.826,0,1,1-3.653,0A12.842,12.842,0,1,0,84.122,67.627a16.495,16.495,0,1,1,0,32.99Z"/>
      <path id="Path_102" data-name="Path 102" d="M45.617,100.617a16.514,16.514,0,0,1-16.5-16.5,1.826,1.826,0,0,1,3.653,0,12.842,12.842,0,0,0,25.685,0V40.116a1.826,1.826,0,1,1,3.653,0V84.122A16.514,16.514,0,0,1,45.617,100.617Z"/>
    </g>
  </g>
</svg>
