<svg xmlns="http://www.w3.org/2000/svg" xmlns:xlink="http://www.w3.org/1999/xlink" width="110" height="110" viewBox="0 0 110 110">
  <defs>
    <clipPath id="clip-path">
      <rect id="Rectangle_77" data-name="Rectangle 77" width="110" height="110" transform="translate(1108 522)" fill="#fff" stroke="#707070" stroke-width="1"/>
    </clipPath>
  </defs>
  <g id="Mask_Group_11" data-name="Mask Group 11" transform="translate(-1108 -522)" clip-path="url(#clip-path)">
    <g id="dp-skill-sass" transform="translate(1092.6 506.6)">
      <g id="Group_112" data-name="Group 112">
        <g id="Group_111" data-name="Group 111">
          <g id="Group_110" data-name="Group 110">
            <g id="Group_109" data-name="Group 109">
              <circle id="Ellipse_6" data-name="Ellipse 6" cx="55" cy="55" r="55" transform="translate(15.4 15.4)" fill="#c69"/>
            </g>
          </g>
        </g>
      </g>
      <path id="Path_106" data-name="Path 106" d="M99.99,45.98A10.151,10.151,0,0,0,94.6,39.6c-5.61-2.97-14.63-3.08-22.88-.11-4.95,1.76-14.3,5.72-21.34,12.21-7.04,6.6-8.14,12.43-7.59,14.74,1.21,6.38,7.92,10.89,13.2,14.63a41.6,41.6,0,0,1,3.74,2.75c-2.97,1.54-11,6.05-13.2,10.78-1.65,3.74-.88,6.49-.22,7.7a5.177,5.177,0,0,0,2.86,2.86,12.359,12.359,0,0,0,3.52.44A14.865,14.865,0,0,0,64.9,98.78a16.025,16.025,0,0,0,1.76-13.53,18.292,18.292,0,0,1,6.05-.22c4.29.55,6.38,2.2,7.37,3.52a5.287,5.287,0,0,1,1.21,3.74,4.613,4.613,0,0,1-2.2,3.08c-.55.33-.99.66-.88,1.32.22.88,1.1.77,1.43.77a6.784,6.784,0,0,0,4.73-5.94,9.374,9.374,0,0,0-2.75-6.82,13.371,13.371,0,0,0-10.23-3.74,21.312,21.312,0,0,0-6.82.88l-.11-.11A58.786,58.786,0,0,0,58.96,77c-4.4-3.3-8.47-6.49-8.25-11.22.33-5.94,6.16-11.77,17.49-17.38,10.01-4.95,18.15-5.17,22.44-3.63,1.76.66,2.97,1.54,3.41,2.53.88,1.87.55,4.29-.99,6.93-2.53,4.4-8.91,9.9-18.7,11-5.94.66-8.47-1.98-8.58-2.09-.66-.77-1.1-1.21-1.87-.77-.88.44-.44,1.65-.22,2.09.44,1.21,2.31,3.3,5.5,4.4,2.53.88,9.02,1.43,17.05-1.65C95.48,63.47,101.86,53.57,99.99,45.98ZM62.04,92.84c-.11.22-.11.44-.22.66a1.563,1.563,0,0,0-.22.66,9.573,9.573,0,0,1-1.98,2.86c-2.53,2.75-5.94,3.52-7.04,2.86a1.481,1.481,0,0,1-.55-.99c-.22-1.32.55-3.96,2.86-6.27a30.894,30.894,0,0,1,7.48-5.39A11.971,11.971,0,0,1,62.04,92.84Z" fill="#fff"/>
    </g>
  </g>
</svg>
