<svg xmlns="http://www.w3.org/2000/svg" xmlns:xlink="http://www.w3.org/1999/xlink" width="110" height="110" viewBox="0 0 110 110">
  <defs>
    <clipPath id="clip-path">
      <rect id="Rectangle_78" data-name="Rectangle 78" width="110" height="110" transform="translate(1120 264)" fill="#fff" stroke="#707070" stroke-width="1"/>
    </clipPath>
  </defs>
  <g id="Mask_Group_10" data-name="Mask Group 10" transform="translate(-1120 -264)" clip-path="url(#clip-path)">
    <g id="dp-skill-jquery" transform="translate(1120 264)">
      <circle id="ellipse" cx="55" cy="55" r="55" fill="#0769ad"/>
      <g id="logo">
        <g id="Group_103" data-name="Group 103">
          <path id="Path_103" data-name="Path 103" d="M24.986,37.447c-6.08,8.744-5.328,20.131-.687,29.434.107.215.236.43.344.666.064.15.15.279.215.43.043.086.086.15.129.236.086.15.15.279.236.43.15.258.3.516.451.752.086.15.172.279.258.408.172.258.344.537.516.816.064.107.15.236.215.344.236.365.494.709.752,1.074l.021.021c.043.064.086.107.129.172.215.3.451.6.688.9l.258.322c.215.258.408.516.623.773.086.086.15.193.236.279.279.344.58.666.881,1.01l.021.021.043.043c.279.322.58.623.881.945a3.423,3.423,0,0,0,.279.279l.709.709c.107.086.193.193.3.279.322.3.645.6.967.881h.021c.064.043.107.107.172.15.3.258.58.494.881.752.129.107.236.193.365.3.236.193.494.387.73.58.129.107.258.193.387.3.279.193.537.408.816.6a2.606,2.606,0,0,0,.3.215c.021.021.064.043.086.064.258.193.537.365.816.537.107.086.236.15.344.236.408.258.838.516,1.268.773.107.064.236.129.344.193.322.172.623.344.945.537l.516.258c.236.107.451.236.666.344a.539.539,0,0,1,.15.086c.086.043.193.086.279.129.344.172.709.344,1.074.494.086.043.15.064.236.107.408.193.838.365,1.246.516.107.043.193.086.3.129.387.15.773.3,1.182.43.043.021.107.021.15.043.43.15.881.3,1.311.43.107.021.215.064.322.086a9.744,9.744,0,0,0,1.354.387C79.148,92.727,87.7,69.674,87.7,69.674,80.523,79.02,67.783,81.49,55.688,78.74q-.677-.161-1.354-.387a3.058,3.058,0,0,1-.344-.107c-.43-.129-.859-.279-1.289-.43a1.482,1.482,0,0,1-.172-.064c-.387-.15-.773-.279-1.139-.43l-.322-.129c-.408-.172-.838-.344-1.246-.516a2.522,2.522,0,0,1-.236-.107c-.344-.15-.687-.322-1.053-.494a1.964,1.964,0,0,1-.3-.15c-.258-.129-.537-.279-.816-.408-.172-.086-.365-.193-.537-.279-.322-.172-.645-.344-.967-.537-.107-.064-.215-.107-.322-.172-.43-.258-.838-.516-1.268-.773-.107-.064-.236-.15-.344-.215-.3-.193-.6-.387-.9-.6-.107-.064-.193-.15-.279-.193-.279-.193-.559-.408-.838-.623-.129-.086-.258-.193-.365-.279-.258-.193-.516-.387-.773-.6-.107-.086-.236-.193-.344-.279-.322-.258-.645-.537-.945-.795-.043-.021-.064-.064-.107-.086-.344-.3-.666-.6-1.01-.9a3.3,3.3,0,0,1-.279-.258c-.236-.236-.494-.473-.709-.709l-.279-.279c-.3-.3-.6-.623-.881-.945l-.043-.043c-.3-.344-.6-.666-.9-1.01-.086-.086-.15-.193-.236-.279-.215-.258-.43-.537-.645-.795a3.672,3.672,0,0,1-.236-.3c-.258-.322-.494-.666-.752-.988-6.7-9.152-9.109-21.764-3.76-32.119" fill="#fff"/>
          <path id="Path_104" data-name="Path 104" d="M43.893,30.057c-4.4,6.338-4.168,14.824-.73,21.506a27.648,27.648,0,0,0,1.955,3.244,16.993,16.993,0,0,0,2.256,2.836c.322.344.645.688.988,1.031l.258.258c.322.322.666.623,1.01.945l.043.043h0c.387.344.773.666,1.182.967.086.064.172.15.258.215l1.225.9c.021,0,.021.021.043.021.193.129.365.236.559.365a1.792,1.792,0,0,0,.258.172c.3.193.6.387.9.559a.45.45,0,0,1,.129.086c.258.15.537.3.816.451.086.043.193.107.279.15.193.107.365.193.559.3.021.021.064.021.086.043.387.193.773.365,1.182.559.086.043.172.064.258.107l.967.387c.129.043.279.107.408.15.3.107.6.215.881.3.129.043.258.086.408.129a8.829,8.829,0,0,0,1.289.365c22.773,3.76,28.016-13.729,28.016-13.729-4.727,6.811-13.879,10.055-23.654,7.52-.43-.107-.859-.236-1.289-.365l-.387-.129c-.3-.107-.6-.193-.9-.322-.129-.043-.279-.107-.408-.15l-.967-.387c-.086-.043-.172-.064-.258-.107-.408-.172-.795-.365-1.182-.559-.193-.086-.408-.193-.6-.3a2.565,2.565,0,0,0-.344-.172c-.258-.129-.494-.279-.752-.43a1.2,1.2,0,0,1-.172-.107c-.3-.172-.6-.365-.9-.559-.086-.064-.193-.129-.279-.193l-.58-.387c-.43-.279-.816-.6-1.225-.9a2.432,2.432,0,0,0-.279-.215,27.373,27.373,0,0,1-9.281-13.234,20.406,20.406,0,0,1,1.611-16.457" fill="#fff"/>
          <path id="Path_105" data-name="Path 105" d="M59.77,24.557A13.228,13.228,0,0,0,58.717,37.34a17.85,17.85,0,0,0,10.334,9.646c.193.064.365.129.559.193a1.211,1.211,0,0,1,.258.086c.258.086.537.172.816.236,12.547,2.428,15.941-6.445,16.865-7.756-2.986,4.3-7.992,5.328-14.137,3.824-.494-.107-1.01-.3-1.482-.451a15.968,15.968,0,0,1-1.762-.73A17.536,17.536,0,0,1,67.074,40.5c-5.5-4.168-8.916-12.139-5.328-18.627" fill="#fff"/>
        </g>
      </g>
    </g>
  </g>
</svg>
