<svg xmlns="http://www.w3.org/2000/svg" xmlns:xlink="http://www.w3.org/1999/xlink" width="110" height="110" viewBox="0 0 110 110">
  <defs>
    <clipPath id="clip-path">
      <rect id="Rectangle_83" data-name="Rectangle 83" width="110" height="110" transform="translate(1354 714)" fill="#fff" stroke="#707070" stroke-width="1"/>
    </clipPath>
  </defs>
  <g id="Mask_Group_13" data-name="Mask Group 13" transform="translate(-1354 -714)" clip-path="url(#clip-path)">
    <g id="dp-skill-Photoshop" transform="translate(1352.457 712.788)">
      <g id="Frame">
        <g id="Group_116" data-name="Group 116">
          <rect id="Rectangle_84" data-name="Rectangle 84" width="110" height="107.134" transform="translate(1.543 2.645)" fill="#7ebcf9"/>
        </g>
      </g>
      <g id="Background">
        <g id="Group_117" data-name="Group 117">
          <rect id="Rectangle_85" data-name="Rectangle 85" width="93.022" height="89.932" transform="translate(9.922 11.246)" fill="#30267e"/>
        </g>
      </g>
      <g id="Shadow2" opacity="0.302">
        <g id="Group_118" data-name="Group 118">
          <path id="Path_108" data-name="Path 108" d="M82.885,47.174,69.659,50.921,52.685,35.05,33.727,37.034l-.661,17.194L28.657,78.7l35.711,22.485h38.577V61.943Z"/>
        </g>
      </g>
      <g id="Shadow_1_" opacity="0.302">
        <g id="Group_119" data-name="Group 119">
          <rect id="Rectangle_86" data-name="Rectangle 86" width="93.022" height="3.086" transform="translate(9.922 11.243)"/>
        </g>
      </g>
      <g id="Ps">
        <g id="Group_120" data-name="Group 120">
          <path id="Path_109" data-name="Path 109" d="M28.643,33.892a71.8,71.8,0,0,1,12.66-.943c6.061,0,10.505,1.28,13.4,3.7a12.822,12.822,0,0,1,4.445,10.034c0,4.31-1.347,7.879-3.906,10.3-3.3,3.3-8.485,4.849-14.344,4.849a23.355,23.355,0,0,1-4.041-.269V78.675H28.643V33.892Zm8.216,21.146a16.713,16.713,0,0,0,4.041.337c6.2,0,9.967-3.031,9.967-8.35,0-5.051-3.5-7.744-9.226-7.744a22.892,22.892,0,0,0-4.781.4Z" fill="#7ebcf9"/>
          <path id="Path_110" data-name="Path 110" d="M62.852,71.065a18.476,18.476,0,0,0,8.418,2.357c3.637,0,5.253-1.482,5.253-3.636,0-2.222-1.347-3.367-5.387-4.781-6.4-2.222-9.091-5.724-9.024-9.563,0-5.792,4.781-10.3,12.391-10.3a19.26,19.26,0,0,1,8.687,1.953L81.574,52.95a14.728,14.728,0,0,0-6.936-1.886c-2.963,0-4.579,1.414-4.579,3.434,0,2.088,1.549,3.1,5.724,4.579,5.926,2.155,8.687,5.185,8.755,10.034,0,5.926-4.647,10.236-13.334,10.236a21.156,21.156,0,0,1-9.967-2.29Z" fill="#7ebcf9"/>
        </g>
      </g>
    </g>
  </g>
</svg>
