<svg xmlns="http://www.w3.org/2000/svg" xmlns:xlink="http://www.w3.org/1999/xlink" width="184" height="184" viewBox="0 0 184 184">
  <defs>
    <clipPath id="clip-path">
      <rect id="Rectangle_26" data-name="Rectangle 26" width="184" height="184" fill="#fff"/>
    </clipPath>
  </defs>
  <g id="Mask_Group_2" data-name="Mask Group 2" clip-path="url(#clip-path)">
    <g id="Outline">
      <path id="Path_16" data-name="Path 16" d="M178.8,4H13.2A9.2,9.2,0,0,0,4,13.2V178.8a9.2,9.2,0,0,0,9.2,9.2H178.8a9.2,9.2,0,0,0,9.2-9.2V13.2A9.2,9.2,0,0,0,178.8,4Zm3.067,174.8a3.067,3.067,0,0,1-3.067,3.067H13.2a3.067,3.067,0,0,1-3.067-3.067V34.667H181.867ZM10.133,28.533V13.2A3.067,3.067,0,0,1,13.2,10.133H178.8a3.067,3.067,0,0,1,3.067,3.067V28.533Z" transform="translate(-4 -4)" fill="#fff"/>
      <path id="Path_17" data-name="Path 17" d="M12.889,12.876A3.168,3.168,0,0,0,12,15.053a3.067,3.067,0,0,0,.245,1.165,2.861,2.861,0,0,0,.644,1.012,3.079,3.079,0,1,0,4.355-4.355A3.211,3.211,0,0,0,12.889,12.876Z" transform="translate(0.267 0.28)" fill="#fff"/>
      <path id="Path_18" data-name="Path 18" d="M20.889,12.9A3.226,3.226,0,0,0,20,15.073a4.155,4.155,0,0,0,.061.613,1.95,1.95,0,0,0,.184.552,2.322,2.322,0,0,0,.276.552,4.832,4.832,0,0,0,.368.46,3.11,3.11,0,0,0,4.355,0l.368-.46a2.322,2.322,0,0,0,.276-.552,1.95,1.95,0,0,0,.184-.552,4.155,4.155,0,0,0,.061-.613A3.067,3.067,0,0,0,20.889,12.9Z" transform="translate(4.533 0.26)" fill="#fff"/>
      <path id="Path_19" data-name="Path 19" d="M28.889,12.876a3.079,3.079,0,1,0,4.355,0A3.211,3.211,0,0,0,28.889,12.876Z" transform="translate(8.8 0.28)" fill="#fff"/>
      <path id="Path_20" data-name="Path 20" d="M171.467,28H12V70.933H171.467Zm-6.133,36.8H18.133V34.133h147.2Z" transform="translate(0.267 8.8)" fill="#fff"/>
      <path id="Path_21" data-name="Path 21" d="M67.2,60H12v85.867H67.2Zm-6.133,79.733H18.133v-73.6H61.067Z" transform="translate(0.267 25.867)" fill="#fff"/>
      <path id="Path_22" data-name="Path 22" d="M52,99.867h98.133V60H52Zm6.133-33.733H144v27.6H58.133Z" transform="translate(21.6 25.867)" fill="#fff"/>
      <path id="Path_23" data-name="Path 23" d="M52,129.867h98.133V90H52Zm6.133-33.733H144v27.6H58.133Z" transform="translate(21.6 41.867)" fill="#fff"/>
    </g>
  </g>
</svg>
